<?xml version="1.0" encoding="utf-8" ?><svg xmlns="http://www.w3.org/2000/svg" xmlns:xlink="http://www.w3.org/1999/xlink" width="1024" height="1024" viewBox="0 0 1024 1024"><path fill="#162B4B" d="M210.431 523.62C210.67 502.219 209.51 480.562 210.413 459.123C210.616 454.309 213.205 453.738 217.568 454.057C221.739 454.362 229.415 452.797 232.328 456.415C234.621 464.225 234.549 553.138 232.724 561.682C230.328 562.323 228.202 562.557 225.756 562.898C221.026 562.918 217.767 562.704 213.036 562.275C208.271 557.939 202.471 550.153 198.434 544.988C189.83 533.98 181.687 522.426 173.068 511.448C168.862 506.09 164.1 499.67 159.267 494.948C159.426 503.84 160.711 555.788 158.569 561.113C156.057 562.462 139.716 562.504 137.414 561.345C135.894 558.076 136.228 541.203 136.381 536.821C137.323 509.868 135.957 482.617 136.529 455.735C140.791 454.551 143.052 454.482 147.426 454.212C150.146 454.15 153.759 454.386 156.54 454.502C160.559 457.079 175.429 477.892 179.063 482.65C189.636 496.216 200.093 509.874 210.431 523.62Z"/><path fill="#162B4B" d="M288.87 477.667C313.09 475.95 334.126 494.17 335.885 518.387C337.644 542.604 319.461 563.672 295.247 565.472C270.974 567.278 249.843 549.04 248.08 524.764C246.317 500.487 264.59 479.388 288.87 477.667ZM294.746 544.088C307.068 542.373 315.709 531.054 314.116 518.717C312.524 506.379 301.292 497.626 288.939 499.096C276.411 500.587 267.507 512.013 269.122 524.525C270.738 537.037 282.251 545.827 294.746 544.088Z"/><path fill="#162B4B" d="M460.702 479.194C471.555 477.537 487.786 481.114 495.643 489.277C507.549 501.648 505.965 520.145 505.939 535.93C505.977 544.754 505.918 553.579 505.764 562.402C500.301 561.564 491.173 561.998 485.721 562.665L484.349 554.356C468.286 564.963 449.88 569.267 434.681 554.42C431.203 549.777 428.291 543.486 428.488 537.661C429.397 510.856 464.562 513.507 481.956 513.932L481.733 513.109C474.561 487.478 454.43 499.394 437.818 504.738C436.158 501.026 430.504 491.715 431.999 487.984C437.216 482.132 453.078 480.022 460.702 479.194ZM450.84 537.08C454.65 546.903 458.751 548.778 468.876 547.313C480.033 543.923 482.202 539.174 482.146 527.782C476.856 527.561 470.7 527.399 465.396 527.723C456.893 528.17 454.106 528.8 450.84 537.08Z"/><path fill="#4975A6" d="M627.012 479.201C627.999 479.162 628.987 479.142 629.975 479.14C658.588 479.154 669.83 503.007 669.483 528.539C648.809 527.876 628.119 527.88 607.445 528.55C611.352 537.764 617.317 544.91 628.161 545.713C637.662 546.417 643.357 541.398 649.988 535.58C651.754 537.032 653.653 538.887 655.352 540.462C658.408 543.496 663.082 546.212 663.874 549.91C663.734 550.72 663.524 551.76 662.86 552.28C634.675 574.381 587.804 563.165 584.583 525.454C583.642 513.994 587.255 502.624 594.64 493.809C603.408 483.484 613.999 480.284 627.012 479.201ZM607.285 514.381C614.92 514.009 622.364 514.026 630.008 514.009C635.869 513.938 642.407 514.15 648.109 513.976C644.792 503.177 637.08 494.939 624.771 497.04C613.868 499.804 610.862 503.918 607.285 514.381Z"/><path fill="#4975A6" d="M773.868 453.14C778.162 453.011 790.403 452.73 794.06 453.05C793.915 462.316 793.469 480.02 794.638 488.514C814.069 475.349 841.235 471.672 851.341 500.589C854.943 510.895 852.976 526.478 853.515 537.467C853.898 545.26 853.562 554.013 853.471 561.971L832.509 561.89C831.665 555.138 832.188 533.166 832.197 524.917C831.667 502.874 821.104 489.514 800.117 504.083C791.373 510.153 793.888 552.847 793.957 562.562C787.158 561.482 779.56 562.222 772.62 562.441C771.703 554.995 772.189 539.555 772.202 531.676L772.293 477.079C772.328 470.09 772.065 461.981 772.287 454.914C772.324 453.731 772.971 453.657 773.868 453.14Z"/><path fill="#4975A6" d="M548.033 453.743C549.937 453.607 552.463 453.717 554.406 453.799C568.603 454.403 582.788 453.392 596.976 453.541C597.053 459.519 597.351 467.645 596.956 473.437C585.573 473.704 574.033 473.245 562.547 473.537C561.049 485.932 562.634 500.945 562.393 513.493C562.078 529.871 561.984 545.925 562.027 562.318C559.255 562.014 556.672 562.005 553.892 561.948C548.698 561.863 543.274 562.277 538.069 562.575L537.539 473.506C530.765 472.607 506.767 474.54 503.992 472.359C502.855 468.347 503.56 458.71 503.725 454.164C517.534 453.452 533.552 454.321 548.033 453.743Z"/><path fill="#162B4B" d="M168.436 377.794C171.685 377.464 176.844 376.118 178.631 379.252C177.36 386.533 154.54 386.438 148.12 386.64C147.175 413.336 142.955 414.881 118.96 425.058C113.018 422.526 100.707 414.58 95.1085 410.89C89.2903 417.926 83.1139 424.617 76.9467 431.345C82.9909 439.135 87.1119 445.671 92.1689 454.101C91.4419 456.346 90.4436 458.811 89.5161 460.985C86.42 468.242 84.0352 475.795 81.0296 483.072C74.3499 486.012 60.4035 490.12 53.1163 491.641C52.424 501.137 52.3988 508.444 52.5573 517.94C57.9763 520.208 72.0204 522.78 79.3494 524.894C82.9159 531.939 88.9847 549.515 92.1719 557.729C88.2031 564.025 80.9204 573.124 76.2385 579.258C79.6668 584.749 89.4835 595.637 94.1134 600.974C100.149 596.419 111.858 591.194 118.9 587.916C120.924 588.991 123.202 590.416 125.225 591.603C132.364 595.796 140.724 599.232 147.561 603.787C148.475 612.189 148.254 620.478 149.615 629.236C160.673 630.715 168.644 630.101 179.833 632.848C180.246 633.74 180.066 633.841 180.035 634.99C176.657 642.441 150.517 637.046 144.341 633.938C141.18 626.967 141.783 615.926 140.633 607.895C131.839 604.067 126.464 601.618 118.802 595.923C110.335 600.304 100.844 605.197 91.848 608.172C86.331 603.057 71.8307 588.01 70.0621 580.964C68.5855 575.081 80.1724 562.385 83.8 556.791C79.6576 548.017 77.395 539.831 74.7076 530.581C65.7987 529.004 55.0121 526.565 46.5319 523.591C45.6968 517.488 44.9894 494.253 47.9181 489.019C51.8375 482.015 67.4793 480.516 75.5627 478.558C78.4794 468.97 80.7732 463.236 84.6388 454.07C78.8377 447.882 73.7898 439.006 69.6782 431.556C73.7029 422.357 85.2544 409.063 94.5812 404.477C103.314 406.019 112.088 412.62 119.507 417.519C126.809 413.173 132.491 410.062 140.058 406.159C140.036 378.706 143.484 380.05 168.436 377.794Z"/><path fill="#4975A6" d="M725.007 478.713L725.969 478.788C739.727 479.886 750.883 483.711 760.138 494.603C755.534 498.324 750.312 503.625 745.975 507.806C741.201 504.475 735.88 499.129 729.907 498.382C689.416 493.342 695.102 554.652 733.231 542.83C742.897 539.833 742.463 531.423 751.374 539.885C755.071 542.878 757.042 544.424 759.713 548.328C736.215 575.458 683.601 565.333 679.574 526.375C678.3 514.75 681.778 503.104 689.217 494.08C698.765 482.65 710.876 480.081 725.007 478.713Z"/><path fill="#162B4B" d="M382.122 536.129C389.065 523.414 397.456 495.003 406.287 482.067C408.062 479.468 422.6 480.453 426.904 480.618C425.26 487.148 422.244 493.674 419.499 499.829C410.031 520.284 401.067 540.97 392.615 561.866C385.227 561.922 377.842 562.146 370.465 562.538C366.078 553.455 362.692 543.373 358.481 533.924L344.935 503.686C343.152 499.679 335.772 484.234 336.926 480.713C342.256 480.481 350.721 479.316 355.71 481.002C362.31 483.232 377.703 527.902 381.759 535.463L382.122 536.129Z"/><path fill="#162B4B" d="M169.614 419.696C172.902 419.178 177.115 418.731 178.853 422.018C177.503 427.937 166.93 426.995 161.814 427.933C147.581 430.539 135.988 436.357 125.294 446.076C109.314 460.703 99.864 481.124 99.0572 502.772C97.3574 545.536 128.265 585.015 170.526 587.915C173.469 588.117 178.602 589.245 180.264 591.83C175.569 597.403 169.24 595.041 163.075 594.233C149.698 592.479 137.701 587.267 127.081 578.945C107.806 564.041 95.3628 541.987 92.573 517.783C89.6931 493.438 95.6285 469.568 111.11 450.423C126.914 430.881 144.944 422.459 169.614 419.696Z"/></svg>