<?xml version="1.0" encoding="utf-8" ?><svg xmlns="http://www.w3.org/2000/svg" xmlns:xlink="http://www.w3.org/1999/xlink" width="1024" height="1024" viewBox="0 0 1024 1024"><path fill="#16294D" d="M173.779 377.216C176.369 377.413 177.103 377.13 178.331 379.499C177.237 386.453 154.156 386.524 148.322 386.724C146.435 411.526 142.71 417.236 118.353 424.894C112.705 422.663 100.766 414.728 95.0314 411.087C90.6892 416.968 82.3596 425.539 77.1494 431.144C83.2124 439.389 87.2213 445.355 92.1235 454.282C91.0973 458.28 82.8721 479.634 80.7641 483.214C75.3877 485.941 59.3442 490.794 53.1073 491.608C52.5859 501.029 52.2408 508.156 52.72 517.641C58.747 519.985 72.4901 523.795 78.8948 524.385C84.0124 533.753 88.5871 547.613 92.3228 557.948C87.9642 564.764 81.4195 572.312 76.6679 579.359C80.0098 584.875 89.4997 595.542 94.0833 600.907C99.7321 596.507 111.041 590.748 117.807 588.448C126.049 590.726 140.328 599.33 147.919 603.882C147.971 612.877 148.913 620.127 149.661 629.011C157.482 630.237 171.372 629.996 179.239 633.025C180.266 633.42 180.201 634.461 180.284 635.351C171.824 641.598 153.134 638.526 144.372 633.951C140.856 625.021 142.579 617.769 140.212 608.208C131.916 603.501 127.116 601.837 118.673 595.931C109.55 600.799 101.334 604.75 91.5938 608.251C88.9854 605.948 86.6247 603.355 84.1934 600.953C64.6896 581.684 68.0374 576.622 83.5596 556.795C80.0815 549.555 77.1142 538.67 74.5025 530.779C64.7307 528.788 55.6809 527.012 46.2342 523.659C44.6637 487.983 41.2585 485.88 75.4812 478.394C78.3433 469.88 81.3328 462.118 84.592 453.77C78.2323 447.721 73.6231 438.991 69.51 431.293C74.4982 421.289 84.6552 409.418 94.8358 404.413C105.292 406.947 110.473 411.325 119.387 417.227C123.942 415.203 135.472 408.533 139.932 405.916C140.273 375.831 147.156 379.017 173.779 377.216Z"/><path fill="#16294D" d="M167.846 419.7C171.383 419.133 176.031 418.374 177.648 422.147C176.835 426.578 171.231 427.403 167.534 427.639C127.873 430.169 97.6587 469.168 99.4821 507.813C99.6822 512.054 99.3882 515.308 100.13 519.603C105.195 548.959 125.433 576.313 154.787 584.694C162.937 587.021 173.353 586.73 180.3 591.653C177.325 597.344 168.192 595.241 163.256 594.463C89.1814 582.781 66.9942 482.248 124.603 436.729C137.894 426.226 150.926 421.657 167.846 419.7Z"/></svg>